External Loads File
version=1
nRows=31
nColumns=13
Range=5.000000e-03-10 seconds
endheader
time 	forceRightX 	forceRightY 	forceRightZ 	pointRightX 	pointRightY 	pointRightZ 	forceLeftX 	forceLeftY 	forceLeftZ 	pointLeftX 	pointLeftY 	pointLeftZ 		
7.505000 58.376834 286.607245 -0.000000 0.445220 0.389497 -0.130361 102.080669 112.885753 -0.000000 0.159724 0.232583 -0.377954
7.510000 62.464377 303.576998 -0.000000 0.447543 0.380959 -0.130215 95.840871 93.642346 -0.000000 0.156685 0.241332 -0.378180
7.515000 65.514895 325.420957 -0.000000 0.449308 0.372059 -0.130057 92.498810 77.945373 -0.000000 0.154088 0.250139 -0.378482
7.520000 67.513698 351.726730 -0.000000 0.450598 0.362495 -0.129929 91.671341 64.817605 -0.000000 0.151847 0.259239 -0.378041
7.525000 67.605363 382.038516 -0.000000 0.451577 0.352595 -0.129979 92.566277 53.651551 -0.000000 0.150351 0.268517 -0.378140
7.530000 65.540442 415.690105 -0.000000 0.452044 0.342611 -0.129874 94.453429 43.813265 -0.000000 0.149521 0.278129 -0.378382
7.535000 61.837607 451.916131 -0.000000 0.451980 0.332204 -0.129582 96.674675 34.687555 -0.000000 0.149263 0.287926 -0.378442
7.540000 56.712883 490.089405 -0.000000 0.451563 0.321521 -0.129707 98.577816 25.954635 -0.000000 0.149641 0.297793 -0.378530
7.545000 50.651310 529.635184 -0.000000 0.450560 0.310698 -0.129576 99.635356 17.442028 -0.000000 0.150619 0.307721 -0.378553
7.550000 44.206432 570.069325 -0.000000 0.448949 0.299927 -0.130007 99.452262 9.139870 -0.000000 0.152283 0.317694 -0.378507
7.555000 38.552243 610.965827 -0.000000 0.446946 0.289020 -0.130016 97.787422 1.063977 -0.000000 0.154558 0.327635 -0.378346
7.560000 34.462814 652.006443 -0.000000 0.444335 0.278319 -0.130281 94.542149 -6.629405 -0.000000 0.157420 0.337751 -0.378193
7.565000 32.471508 692.879648 -0.000000 0.440998 0.267536 -0.129881 89.784192 -13.777534 -0.000000 0.160962 0.347496 -0.378034
7.570000 32.435032 733.278562 -0.000000 0.437262 0.256972 -0.129961 83.727756 -20.224786 -0.000000 0.165166 0.356847 -0.377693
7.575000 35.910813 772.816085 -0.000000 0.433018 0.246488 -0.130108 76.599912 -26.103613 -0.000000 0.169929 0.366104 -0.377426
7.580000 42.500445 811.214556 -0.000000 0.428244 0.236241 -0.130187 68.666012 -31.361682 -0.000000 0.175265 0.375094 -0.377198
7.585000 51.772034 848.309444 -0.000000 0.422934 0.226432 -0.130263 60.171020 -35.993438 -0.000000 0.181143 0.383823 -0.376964
7.590000 64.063537 884.061998 -0.000000 0.417061 0.216903 -0.130478 51.301959 -40.046632 -0.000000 0.187490 0.392320 -0.376681
7.595000 78.543628 918.553610 -0.000000 0.410807 0.207765 -0.130637 42.279230 -43.451238 -0.000000 0.194394 0.400410 -0.376432
7.600000 95.571314 951.651213 -0.000000 0.404085 0.199191 -0.131007 33.258127 -46.153716 -0.000000 0.201676 0.408406 -0.376189
7.605000 115.090886 983.137643 -0.000000 0.396690 0.191020 -0.131185 24.402203 -48.034530 -0.000000 0.209330 0.415799 -0.375923
7.610000 136.873748 1012.801589 -0.000000 0.389149 0.183266 -0.131584 15.882233 -48.970236 -0.000000 0.217422 0.422998 -0.375730
7.615000 160.488388 1040.348687 -0.000000 0.381231 0.176076 -0.132048 7.885688 -48.847450 -0.000000 0.225869 0.429821 -0.375465
7.620000 185.129449 1065.254024 -0.000000 0.373133 0.169427 -0.132746 0.598333 -47.587512 -0.000000 0.234686 0.436023 -0.375282
7.625000 212.684825 1086.209531 -0.000000 0.364455 0.163139 -0.133040 -5.990556 -45.173244 -0.000000 0.243753 0.441948 -0.374892
7.630000 240.835317 1102.558451 -0.000000 0.355674 0.157479 -0.133535 -11.812233 -41.633834 -0.000000 0.253067 0.447489 -0.374641
7.635000 270.022883 1113.307750 -0.000000 0.346638 0.152388 -0.134126 -17.014316 -37.002106 -0.000000 0.262798 0.452451 -0.374538
7.640000 298.785646 1118.134642 -0.000000 0.337300 0.147864 -0.134635 -21.751205 -31.311037 -0.000000 0.272641 0.456887 -0.374250
7.645000 325.714066 1117.004253 -0.000000 0.327855 0.143965 -0.135077 -26.237438 -24.584260 -0.000000 0.282607 0.460819 -0.373996
7.650000 350.647129 1109.689093 -0.000000 0.318162 0.140622 -0.135383 -30.700990 -16.819519 -0.000000 0.292702 0.464144 -0.373650
7.655000 372.724270 1096.202356 -0.000000 0.308363 0.137934 -0.135679 -35.286913 -8.065182 -0.000000 0.302981 0.466836 -0.373356
